HIERARCHY
ROOT SpineBase
{
  OFFSET 0.000000 0.000000 0.000000
  CHANNELS 6 Xposition Yposition Zposition Zrotation Xrotation Yrotation
  JOINT SpineMid
  {
    OFFSET -0.000000 30.164765 0.000000
    CHANNELS 3 Zrotation Xrotation Yrotation
    JOINT SpineShoulder
    {
      OFFSET 0.033459 22.276691 -0.631407
      CHANNELS 3 Zrotation Xrotation Yrotation
      JOINT Neck
      {
        OFFSET 0.016113 7.343113 -0.505771
        CHANNELS 3 Zrotation Xrotation Yrotation
        JOINT Head
        {
          OFFSET 4.430625 11.652155 3.411217
          CHANNELS 3 Zrotation Xrotation Yrotation
          End Site
          {
            OFFSET 0 0 0
          }
        }
      }
      JOINT ShoulderLeft
      {
        OFFSET -6.907833 -3.859362 -14.256481
        CHANNELS 3 Zrotation Xrotation Yrotation
        JOINT ElbowLeft
        {
          OFFSET -3.327743 -19.634239 -6.109589
          CHANNELS 3 Zrotation Xrotation Yrotation
          JOINT WristLeft
          {
            OFFSET 7.994831 -22.984544 -1.957954
            CHANNELS 3 Zrotation Xrotation Yrotation
            JOINT HandLeft
            {
              OFFSET 0.843077 -7.501821 0.374931
              CHANNELS 3 Zrotation Xrotation Yrotation
              JOINT HandTipLeft
              {
                OFFSET 1.761668 -6.755184 0.100025
                CHANNELS 3 Zrotation Xrotation Yrotation
                End Site
                {
                  OFFSET 0 0 0
                }
              }
              JOINT ThumbLeft
              {
                OFFSET 2.880173 1.230639 1.211205
                CHANNELS 3 Zrotation Xrotation Yrotation
                End Site
                {
                  OFFSET 0 0 0
                }
              }
            }
          }
        }
      }
      JOINT ShoulderRight
      {
        OFFSET 8.781690 -3.464685 13.768040
        CHANNELS 3 Zrotation Xrotation Yrotation
        JOINT ElbowRight
        {
          OFFSET 1.425009 -26.922051 4.421757
          CHANNELS 3 Zrotation Xrotation Yrotation
          JOINT WristRight
          {
            OFFSET 1.361040 -26.741161 -5.960904
            CHANNELS 3 Zrotation Xrotation Yrotation
            JOINT HandRight
            {
              OFFSET -0.308347 -2.243365 -3.020900
              CHANNELS 3 Zrotation Xrotation Yrotation
              JOINT HandTipRight
              {
                OFFSET -0.836222 -3.745093 -0.154793
                CHANNELS 3 Zrotation Xrotation Yrotation
                End Site
                {
                  OFFSET 0 0 0
                }
              }
              JOINT ThumbRight
              {
                OFFSET 0.699166 -2.343879 -0.240692
                CHANNELS 3 Zrotation Xrotation Yrotation
                End Site
                {
                  OFFSET 0 0 0
                }
              }
            }
          }
        }
      }
    }
  }
  JOINT HipLeft
  {
    OFFSET -2.703789 1.873631 -8.848022
    CHANNELS 3 Zrotation Xrotation Yrotation
    JOINT KneeLeft
    {
      OFFSET -9.281521 -30.940432 -6.255488
      CHANNELS 3 Zrotation Xrotation Yrotation
      JOINT AnkleLeft
      {
        OFFSET -5.139493 -32.371661 -1.046857
        CHANNELS 3 Zrotation Xrotation Yrotation
        JOINT FootLeft
        {
          OFFSET 1.075676 -6.692263 -8.255515
          CHANNELS 3 Zrotation Xrotation Yrotation
          End Site
          {
            OFFSET 0 0 0
          }
        }
      }
    }
  }
  JOINT HipRight
  {
    OFFSET 3.803093 -0.565799 1.866388
    CHANNELS 3 Zrotation Xrotation Yrotation
    JOINT KneeRight
    {
      OFFSET -2.956431 -30.530317 3.379523
      CHANNELS 3 Zrotation Xrotation Yrotation
      JOINT AnkleRight
      {
        OFFSET -3.574339 -29.661963 3.858112
        CHANNELS 3 Zrotation Xrotation Yrotation
        JOINT FootRight
        {
          OFFSET 5.015847 -7.107632 -3.751854
          CHANNELS 3 Zrotation Xrotation Yrotation
          End Site
          {
            OFFSET 0 0 0
          }
        }
      }
    }
  }
}
MOTION
Frames: 9
Frame Time: 0.033333
-51.919157 69.628842 321.752742 0.000000 0.000000 -58.729606 -0.000000 -0.000000 58.729606 -0.000000 0.000000 0.000000 -0.000000 0.000000 0.000000 0.000000 0.000000 0.000000 -0.000000 0.000000 0.000000 -0.000000 0.000000 0.000000 -0.000000 0.000000 0.000000 -0.000000 0.000000 0.000000 0.000000 0.000000 0.000000 0.000000 0.000000 0.000000 -0.000000 0.000000 0.000000 -0.000000 0.000000 0.000000 -0.000000 0.000000 0.000000 -0.000000 0.000000 0.000000 0.000000 0.000000 0.000000 0.000000 0.000000 0.000000 -0.000000 -0.000000 58.729606 -0.000000 0.000000 0.000000 -0.000000 0.000000 0.000000 0.000000 0.000000 0.000000 -0.000000 -0.000000 58.729606 -0.000000 0.000000 0.000000 -0.000000 0.000000 0.000000 0.000000 0.000000 0.000000
-51.878432 69.641624 321.749595 0.088026 0.006481 -59.033472 -0.039735 -0.078814 59.033439 -0.000000 0.000000 0.000000 -0.000000 0.000000 0.000000 0.000000 0.000000 0.000000 -0.000000 0.000000 0.000000 -1.698060 0.616347 0.369920 0.754681 0.419259 -0.283463 -0.387092 -2.180017 -0.416602 0.000000 0.000000 0.000000 0.000000 0.000000 0.000000 -0.000000 0.000000 0.000000 0.239430 0.817800 -0.013434 0.218926 -4.128969 -0.136644 1.269377 7.077572 -0.891837 0.000000 0.000000 0.000000 0.000000 0.000000 0.000000 -0.039735 -0.078814 59.033439 -0.000000 0.000000 0.000000 -0.000000 0.000000 0.000000 0.000000 0.000000 0.000000 -0.039735 -0.078814 59.033439 -0.000000 0.000000 0.000000 -0.000000 0.000000 0.000000 0.000000 0.000000 0.000000
-51.830016 69.649920 321.751955 0.180827 0.010086 -59.290144 -0.083675 -0.160619 59.290011 -0.000000 0.000000 0.000000 -0.000000 0.000000 0.000000 0.000000 0.000000 0.000000 -0.000000 0.000000 0.000000 -3.115378 1.122881 0.692541 1.313187 0.877966 -0.498517 -0.670047 -3.997218 -0.791662 0.000000 0.000000 0.000000 0.000000 0.000000 0.000000 -0.000000 0.000000 0.000000 0.453349 1.432315 -0.033719 0.355871 -7.912328 -0.114004 2.562981 13.020216 -1.933597 0.000000 0.000000 0.000000 0.000000 0.000000 0.000000 -0.083675 -0.160619 59.290011 -0.000000 0.000000 0.000000 -0.000000 0.000000 0.000000 0.000000 0.000000 0.000000 -0.083675 -0.160619 59.290011 -0.000000 0.000000 0.000000 -0.000000 0.000000 0.000000 0.000000 0.000000 0.000000
-51.773911 69.653730 321.759824 0.278374 0.010810 -59.500510 -0.131970 -0.245342 59.500201 -0.000000 0.000000 0.000000 -0.000000 0.000000 0.000000 0.000000 0.000000 0.000000 -0.000000 0.000000 0.000000 -4.284019 1.535676 0.968211 1.765303 1.302501 -0.661369 -0.905482 -5.399018 -1.098837 0.000000 0.000000 0.000000 0.000000 0.000000 0.000000 -0.000000 0.000000 0.000000 0.640477 1.831920 -0.059535 0.443252 -11.408204 0.039921 3.866876 17.950763 -3.058288 0.000000 0.000000 0.000000 0.000000 0.000000 0.000000 -0.131970 -0.245342 59.500201 -0.000000 0.000000 0.000000 -0.316028 0.618596 0.487951 0.000000 0.000000 0.000000 -0.131970 -0.245342 59.500201 -0.000000 0.000000 0.000000 -0.000000 0.000000 0.000000 0.000000 0.000000 0.000000
-51.710116 69.653053 321.773200 0.380634 0.008652 -59.665319 -0.184774 -0.332890 59.664754 -0.000000 0.000000 0.000000 -0.000000 0.000000 0.000000 0.000000 0.000000 0.000000 -0.665205 0.456200 0.132029 -4.558995 1.422722 1.029771 2.193039 1.618973 -0.787296 -1.150682 -6.331128 -1.315235 0.000000 0.000000 0.000000 0.000000 0.000000 0.000000 -0.000000 0.000000 0.000000 0.799287 2.003413 -0.089789 0.504987 -14.659172 0.309148 5.165015 22.012876 -4.223383 0.000000 0.000000 0.000000 0.000000 0.000000 0.000000 -0.184774 -0.332890 59.664754 -0.000000 0.000000 0.000000 -0.345429 0.623433 0.524934 0.000000 0.000000 0.000000 -0.184774 -0.332890 59.664754 -0.000000 0.000000 0.000000 -0.075162 -0.843638 -0.558668 0.000000 0.000000 0.000000
-51.638630 69.647889 321.792084 0.487570 0.003614 -59.785188 -0.242248 -0.423148 59.784278 -0.000000 0.000000 0.000000 -0.000000 0.000000 0.000000 0.000000 0.000000 0.000000 -0.883798 0.621138 0.174011 -5.076524 1.522516 1.153413 2.662239 1.763363 -0.889378 -1.454463 -6.746198 -1.422317 0.000000 0.000000 0.000000 0.000000 0.000000 0.000000 0.100422 1.263193 0.082397 0.828074 0.667290 -0.187814 0.560381 -17.695779 0.685756 6.443711 25.350947 -5.404310 0.000000 0.000000 0.000000 0.000000 0.000000 0.000000 -0.242248 -0.423148 59.784278 -0.000000 0.000000 0.000000 -0.000000 0.000000 0.000000 0.000000 0.000000 0.000000 -0.242248 -0.423148 59.784278 -0.000000 0.000000 0.000000 -0.012583 -1.052421 -0.739821 0.000000 0.000000 0.000000
-51.550981 69.636567 321.795743 0.611906 0.029205 -59.808392 -0.282490 -0.543585 59.806896 -0.000000 0.000000 0.000000 -0.000000 0.000000 0.000000 0.000000 0.000000 0.000000 -1.176532 0.868268 0.226937 -5.260934 1.510863 1.222801 3.390365 1.897666 -0.936933 -1.527758 -6.269990 -1.226240 0.000000 0.000000 0.000000 0.000000 0.000000 0.000000 0.165098 2.170723 0.139323 0.927941 -0.816795 -0.291585 0.546398 -21.845791 1.572822 9.047885 26.061196 -6.662445 0.000000 0.000000 0.000000 0.000000 0.000000 0.000000 -0.282490 -0.543585 59.806896 -0.000000 0.000000 0.000000 -0.000000 0.000000 0.000000 0.000000 0.000000 0.000000 -1.116187 -1.026919 59.656618 0.838218 -0.475325 0.142329 0.150848 -1.389794 -1.064417 0.000000 0.000000 0.000000
-51.464729 69.621316 321.836211 0.732082 0.001947 -59.795057 -0.366639 -0.633664 59.793017 -0.000000 0.000000 0.000000 -0.000000 0.000000 0.000000 0.000000 0.000000 0.000000 -1.467388 1.104792 0.282069 -5.254305 1.427592 1.239383 3.943566 1.453194 -1.030574 -1.840297 -4.723687 -0.822187 0.000000 0.000000 0.000000 0.000000 0.000000 0.000000 0.231135 3.128363 0.198146 0.966960 -2.344731 -0.381546 0.721501 -26.090984 2.440623 10.976572 30.785132 -9.028709 0.000000 0.000000 0.000000 0.000000 0.000000 0.000000 -0.975700 -1.292151 59.901006 0.875077 -0.196709 -0.116722 -0.000000 0.000000 0.000000 0.000000 0.000000 0.000000 -1.379281 -1.229793 59.607495 1.026399 -0.571903 0.174178 0.243605 -1.707471 -1.338470 0.000000 0.000000 0.000000
-51.375794 69.604117 321.878801 0.852498 -0.027142 -59.782826 -0.452520 -0.722997 59.780173 -0.000000 0.000000 0.000000 -0.000000 0.000000 0.000000 0.000000 0.000000 0.000000 -1.719038 1.298656 0.332305 -5.190067 1.290947 1.216251 4.908737 2.466173 -0.872955 -2.946500 -5.554556 -1.041723 0.000000 0.000000 0.000000 0.000000 0.000000 0.000000 0.292676 4.020299 0.252102 0.868272 -3.805511 -0.443577 1.220910 -29.449735 2.868905 10.756794 36.113490 -10.274820 0.000000 0.000000 0.000000 0.000000 0.000000 0.000000 -1.199716 -1.465402 59.889725 1.016967 -0.273935 -0.121390 -0.000000 0.000000 0.000000 0.000000 0.000000 0.000000 -1.654258 -1.430436 59.556995 1.218602 -0.677639 0.207802 0.369005 -1.873435 -1.520529 0.000000 0.000000 0.000000
